<mxfile host="Electron" modified="2023-05-31T13:21:50.096Z" agent="Mozilla/5.0 (Windows NT 10.0; Win64; x64) AppleWebKit/537.36 (KHTML, like Gecko) draw.io/21.2.8 Chrome/112.0.5615.165 Electron/24.2.0 Safari/537.36" etag="J0XID_ruYC2T6Dywqd_I" version="21.2.8" type="device">
  <diagram name="第 1 页" id="gWhlsgAaeWXbigeOoKlu">
    <mxGraphModel dx="1418" dy="820" grid="1" gridSize="10" guides="1" tooltips="1" connect="1" arrows="1" fold="1" page="1" pageScale="1" pageWidth="827" pageHeight="1169" math="0" shadow="0">
      <root>
        <mxCell id="0" />
        <mxCell id="1" parent="0" />
        <mxCell id="22jnlko9zRLNQBWsXkIv-1" value="" style="shape=image;verticalLabelPosition=bottom;labelBackgroundColor=default;verticalAlign=top;aspect=fixed;imageAspect=0;image=data:image/png,iVBORw0KGgoAAAANSUhEUgAAAYUAAAGFCAYAAAASI+9IAAAAOXRFWHRTb2Z0d2FyZQBNYXRwbG90bGliIHZlcnNpb24zLjcuMSwgaHR0cHM6Ly9tYXRwbG90bGliLm9yZy/bCgiHAAAACXBIWXMAAA9hAAAPYQGoP6dpAAAIxklEQVR4nO3cT4iO7x7H8fs+jUxR7ElNZmLDxp8UYSFKMWU2shMbK0uUlZWVLdlYoyYKUaQoMitlRyFRWNjMgoT7LE7nU6dzOuf53r/zzIzxeq2fT8/VZObdtXC1Xdd1DQA0TfO3+T4AAAuHKAAQogBAiAIAIQoAhCgAEKIAQIgCADEy6AfHxsaGeY548+ZNr91cnY9/ePv27XwfASga5P8quykAEKIAQIgCACEKAIQoABCiAECIAgAhCgCEKAAQogBAiAIAIQoARNsN8kJS0zRt2w77LAAMkQfxACgRBQBCFAAIUQAgRAGAEAUAQhQACFEAIEQBgBAFAEIUAAhRACBEAYAQBQBCFAAIUQAgRAGAEAUAQhQACFEAIEQBgBAFAEIUAAhRACBEAYAQBQBiZL4PAH+atWvX9tqdOXOmvDly5Eh5s2fPnvLmyZMn5Q0Lk5sCACEKAIQoABCiAECIAgAhCgCEKAAQogBAiAIAIQoAhCgAEKIAQHgQD/6C1atXlzd37tzp9V3j4+Plzc+fP8ubHz9+lDcsHm4KAIQoABCiAECIAgAhCgCEKAAQogBAiAIAIQoAhCgAEKIAQIgCAOFBPPgLjh07Vt70ediurytXrpQ3MzMzQzgJvws3BQBCFAAIUQAgRAGAEAUAQhQACFEAIEQBgBAFAEIUAAhRACBEAYBou67rBvpg2w77LDCvNm/eXN48evSovFm6dGl50zRN8+TJk/Jm79695c3Xr1/LG34Pg/y5d1MAIEQBgBAFAEIUAAhRACBEAYAQBQBCFAAIUQAgRAGAEAUAQhQAiJH5PgAsFFNTU+XN6OhoeTMzM1PeNE3TTE5Oljcet6PKTQGAEAUAQhQACFEAIEQBgBAFAEIUAAhRACBEAYAQBQBCFAAIUQAgRAGAaLuu6wb6YNsO+yzwf3P8+PHy5vLly+XN7OxsebNhw4bypmma5t27d7128E+D/Ll3UwAgRAGAEAUAQhQACFEAIEQBgBAFAEIUAAhRACBEAYAQBQBCFACIkfk+APwvS5cuLW+mpqbKmwHfhvwXp0+fLm88bMdC5qYAQIgCACEKAIQoABCiAECIAgAhCgCEKAAQogBAiAIAIQoAhCgAEG034CtgbdsO+yzwH01OTpY309PT5c39+/fLm3379pU3MF8G+XPvpgBAiAIAIQoAhCgAEKIAQIgCACEKAIQoABCiAECIAgAhCgCEKAAQI/N9AP4cDx8+7LV7+vRpefPq1avy5sSJE+UNLDZuCgCEKAAQogBAiAIAIQoAhCgAEKIAQIgCACEKAIQoABCiAECIAgAhCgCEV1LpZePGjeXN5s2be33Xzp07y5tDhw6VN69fvy5vYLFxUwAgRAGAEAUAQhQACFEAIEQBgBAFAEIUAAhRACBEAYAQBQBCFAAID+LRy/Xr18ubZcuW9fque/fuzclmoVu/fn15Mzs7W958+PChvGHxcFMAIEQBgBAFAEIUAAhRACBEAYAQBQBCFAAIUQAgRAGAEAUAQhQACA/i0cvExER503Vdr++6ePFiefPt27fyZuXKleXN2bNny5v9+/eXN03TNKtWrSpvPn78WN6cPHmyvLl79255w8LkpgBAiAIAIQoAhCgAEKIAQIgCACEKAIQoABCiAECIAgAhCgCEKAAQHsSj2bFjx5x8z/fv33vt+jzq1sepU6fKm+XLl5c3z58/L2+apmnWrVtX3oyPj5c3fR4gHBsbK29YmNwUAAhRACBEAYAQBQBCFAAIUQAgRAGAEAUAQhQACFEAIEQBgBAFAKLtuq4b6INtO+yzME8eP35c3mzfvr28uX37dnnTNE1z4MCBXruFqs8jek3TNC9evChv1qxZ0+u7qiYnJ8ubW7duDeEk/DeD/Ll3UwAgRAGAEAUAQhQACFEAIEQBgBAFAEIUAAhRACBEAYAQBQBCFAAIUQAgRub7APw5bty4Md9HWBBGR0d77ebqxdOXL1+WN148XTzcFAAIUQAgRAGAEAUAQhQACFEAIEQBgBAFAEIUAAhRACBEAYAQBQDCg3j00rZteTMxMTGEk/w5+vzM+5ienp6T72FhclMAIEQBgBAFAEIUAAhRACBEAYAQBQBCFAAIUQAgRAGAEAUAQhQACA/i0UvXdeXN1q1be33X4cOHy5tr166VN79+/SpvlixZUt5s27atvGmafj/znz9/ljc3b94sb1g83BQACFEAIEQBgBAFAEIUAAhRACBEAYAQBQBCFAAIUQAgRAGAEAUAwoN4NA8ePChvVq9eXd7s2rWrvOm7O3jwYHlz9erV8ubAgQPlzdGjR8ubvi5dulTezMzMDOEk/C7cFAAIUQAgRAGAEAUAQhQACFEAIEQBgBAFAEIUAAhRACBEAYAQBQCi7bquG+iDbTvsszBPRkdHy5vdu3eXN+fOnStvmqZpNm3a1Gs3F/r8Xgz4K/dv3r9/X95s3bq1vPn06VN5w+9hkH97bgoAhCgAEKIAQIgCACEKAIQoABCiAECIAgAhCgCEKAAQogBAiAIAIQoAhFdSmTNLlizptduyZUt5c+HChfJmxYoV5c3nz5/Lm/Pnz5c3TdM0z549K2++fPnS67tYnLySCkCJKAAQogBAiAIAIQoAhCgAEKIAQIgCACEKAIQoABCiAECIAgDhQTyAP4QH8QAoEQUAQhQACFEAIEQBgBAFAEIUAAhRACBEAYAQBQBCFAAIUQAgRAGAEAUAQhQACFEAIEQBgBAFAEIUAAhRACBEAYAQBQBCFAAIUQAgRAGAEAUAQhQACFEAIEQBgBAFAEIUAAhRACBEAYAQBQBCFAAIUQAgRAGAEAUAQhQACFEAIEQBgBAFAEIUAAhRACBEAYAQBQBCFAAIUQAgRAGAEAUAQhQACFEAIEQBgBAFAEIUAAhRACBEAYAQBQBCFAAIUQAgRAGAEAUAQhQACFEAIEQBgBgZ9INd1w3zHAAsAG4KAIQoABCiAECIAgAhCgCEKAAQogBAiAIAIQoAxN8BisUM3hpriVAAAAAASUVORK5CYII=;" parent="1" vertex="1">
          <mxGeometry x="330" y="71" width="330" height="330" as="geometry" />
        </mxCell>
        <mxCell id="22jnlko9zRLNQBWsXkIv-2" value="" style="shape=image;verticalLabelPosition=bottom;labelBackgroundColor=default;verticalAlign=top;aspect=fixed;imageAspect=0;image=data:image/png,iVBORw0KGgoAAAANSUhEUgAAAYUAAAGFCAYAAAASI+9IAAAAOXRFWHRTb2Z0d2FyZQBNYXRwbG90bGliIHZlcnNpb24zLjcuMSwgaHR0cHM6Ly9tYXRwbG90bGliLm9yZy/bCgiHAAAACXBIWXMAAA9hAAAPYQGoP6dpAAAJO0lEQVR4nO3cTYjOex/H8f/luTQ2FErKRlZYKAthViIpG6aEpVCKRHZ2YkEWSiiysLCzRE0jScpDlhZCJErJpDyF617c9am7Tt3z/Z8z1zjXvF7r+fT7J3Pe57fw63S73W4DAE3TTJnoDwDgzyEKAIQoABCiAECIAgAhCgCEKAAQogBATBvrDy5ZsmQ8v6OvvXz5srz50/+8X716NdGfABSN5d8quykAEKIAQIgCACEKAIQoABCiAECIAgAhCgCEKAAQogBAiAIAIQoARKc7lheSmqbpdDrj/S0AjCMP4gFQIgoAhCgAEKIAQIgCACEKAIQoABCiAECIAgAhCgCEKAAQogBATJvoD4D/5/jx4+XN7t27y5uhoaHy5tGjR+UN/MncFAAIUQAgRAGAEAUAQhQACFEAIEQBgBAFAEIUAAhRACBEAYAQBQBCFAAIr6TSM4ODg612e/bsKW++fPlS3qxataq88Uoq/cZNAYAQBQBCFAAIUQAgRAGAEAUAQhQACFEAIEQBgBAFAEIUAAhRACA63W63O6Yf7HTG+1v4FxkYGChvXrx40eqsq1evljfHjh0rb8b4q/A/fv36Vd7ARBnL33E3BQBCFAAIUQAgRAGAEAUAQhQACFEAIEQBgBAFAEIUAAhRACBEAYCYNtEfwL/Tvn37yptv3761Ouv06dPlzc+fP1udBZOdmwIAIQoAhCgAEKIAQIgCACEKAIQoABCiAECIAgAhCgCEKAAQogBAeBCPVo4ePVreXLhwodVZ7969a7UD6twUAAhRACBEAYAQBQBCFAAIUQAgRAGAEAUAQhQACFEAIEQBgBAFAMKDeDQDAwPlzcyZM8ubZ8+elTdAb7kpABCiAECIAgAhCgCEKAAQogBAiAIAIQoAhCgAEKIAQIgCACEKAIQoABBeSaXZuHFjT865efNmT84B2nNTACBEAYAQBQBCFAAIUQAgRAGAEAUAQhQACFEAIEQBgBAFAEIUAAgP4tHs3bu3vPn+/Xt58+HDh/IG6C03BQBCFAAIUQAgRAGAEAUAQhQACFEAIEQBgBAFAEIUAAhRACBEAYDwIF6f6XQ65c3cuXPLm+Hh4fKGv2dwcLC8GRoa+uc/5C98+vSpvLl7926rs27evFnedLvdVmdNRm4KAIQoABCiAECIAgAhCgCEKAAQogBAiAIAIQoAhCgAEKIAQIgCAOFBvD6zcOHC8mb58uXlzalTp8qbfjRjxozy5uTJk63OOnjwYHnz+vXr8ubz5889OWf//v3lTdM0zbZt28qb27dvtzprMnJTACBEAYAQBQBCFAAIUQAgRAGAEAUAQhQACFEAIEQBgBAFAEIUAAhRACC8kkorHz58mOhP+MdNmVL/f6RLly6VN7t27Spvmqbdq6JXrlwpb75//17etLF169ZWuwsXLpQ3K1euLG9GR0fLm37gpgBAiAIAIQoAhCgAEKIAQIgCACEKAIQoABCiAECIAgAhCgCEKAAQHsTrM4sXL+7JOQ8fPuzJOb107ty58mbDhg092TRN0wwPD5c33W631Vm9cOvWrVa7WbNmlTezZ88ubzyIB8CkJwoAhCgAEKIAQIgCACEKAIQoABCiAECIAgAhCgCEKAAQogBAeBCvz8yfP3+iP+GPsGDBgvJmy5Yt5c2OHTvKm5GRkfKmH339+rXV7vnz5+XN2rVry5vr16+XN/3ATQGAEAUAQhQACFEAIEQBgBAFAEIUAAhRACBEAYAQBQBCFAAIUQAgPIjXZ378+NGTcxYtWlTejI6OjsOX/LWdO3eWN20e0bt//355Q+8NDAxM9Cf8a7gpABCiAECIAgAhCgCEKAAQogBAiAIAIQoAhCgAEKIAQIgCACEKAIQH8frMvXv3ypv379+XN3v37i1vDhw4UN609eDBg/Jm2rT6r8P69evLm9u3b5c3/ajNn3fTNM2cOXPKm0+fPrU6azJyUwAgRAGAEAUAQhQACFEAIEQBgBAFAEIUAAhRACBEAYAQBQBCFAAIUQAgvJLaZz5//lzevH37trzZtm1beXPo0KHypmma5ufPn+XNx48fy5vfv3+XN1OnTi1v+K+2r+YuWLCgvBkeHm511mTkpgBAiAIAIQoAhCgAEKIAQIgCACEKAIQoABCiAECIAgAhCgCEKAAQnW632x3TD3Y64/0tTJChoaHy5tq1a+XN+fPny5umaf9wWtXFixfLm82bN5c3ly9fLm+apmm+ffvWald179698mbx4sXlzaVLl8qbpmmaTZs2lTcjIyOtzuo3Y/nPvZsCACEKAIQoABCiAECIAgAhCgCEKAAQogBAiAIAIQoAhCgAEKIAQHgQj1auX79e3mzdurXVWWfPni1vzpw5U96Mjo6WNxs3bixv5s2bV940TbvfwRkzZpQ3S5cuLW9WrFhR3hw+fLi8aZqmefz4casdHsQDoEgUAAhRACBEAYAQBQBCFAAIUQAgRAGAEAUAQhQACFEAIEQBgPAgHq1Mnz69vDlx4kSrsw4ePFjevH37try5ceNGefPmzZvypq02DwquWbOmvBkeHi5vjhw5Ut48ffq0vOHv8SAeACWiAECIAgAhCgCEKAAQogBAiAIAIQoAhCgAEKIAQIgCACEKAIQH8fjjrV69urzZvn17ebNu3bryZtmyZeXNnTt3ypumaZonT56UN3fv3i1vRkZGypvfv3+XN/SeB/EAKBEFAEIUAAhRACBEAYAQBQBCFAAIUQAgRAGAEAUAQhQACFEAIEQBgPBKKsAk4ZVUAEpEAYAQBQBCFAAIUQAgRAGAEAUAQhQACFEAIEQBgBAFAEIUAAhRACBEAYAQBQBCFAAIUQAgRAGAEAUAQhQACFEAIEQBgBAFAEIUAAhRACBEAYAQBQBCFAAIUQAgRAGAEAUAQhQACFEAIEQBgBAFAEIUAAhRACBEAYAQBQBCFAAIUQAgRAGAEAUAQhQACFEAIEQBgBAFAEIUAAhRACBEAYAQBQBCFAAIUQAgRAGAEAUAQhQACFEAIEQBgBAFAEIUAAhRACBEAYAQBQBCFAAIUQAgRAGAEAUAQhQACFEAIEQBgBAFAEIUAAhRACBEAYAQBQBCFAAIUQAgRAGAmDbWH+x2u+P5HQD8AdwUAAhRACBEAYAQBQBCFAAIUQAgRAGAEAUAQhQAiP8AKDE8AHo4fY4AAAAASUVORK5CYII=;" parent="1" vertex="1">
          <mxGeometry y="70" width="330" height="330" as="geometry" />
        </mxCell>
        <mxCell id="22jnlko9zRLNQBWsXkIv-3" value="&lt;font color=&quot;#00ff00&quot; size=&quot;1&quot; style=&quot;&quot;&gt;&lt;b style=&quot;font-size: 30px;&quot;&gt;6: Positive data&lt;/b&gt;&lt;/font&gt;" style="text;html=1;strokeColor=none;fillColor=none;align=center;verticalAlign=middle;whiteSpace=wrap;rounded=0;" parent="1" vertex="1">
          <mxGeometry x="60" y="35" width="250" height="60" as="geometry" />
        </mxCell>
        <mxCell id="22jnlko9zRLNQBWsXkIv-5" value="&lt;font color=&quot;#ff0000&quot; size=&quot;1&quot; style=&quot;&quot;&gt;&lt;b style=&quot;font-size: 30px;&quot;&gt;2: Negative data&lt;/b&gt;&lt;/font&gt;" style="text;html=1;strokeColor=none;fillColor=none;align=center;verticalAlign=middle;whiteSpace=wrap;rounded=0;" parent="1" vertex="1">
          <mxGeometry x="348" y="35" width="250" height="60" as="geometry" />
        </mxCell>
      </root>
    </mxGraphModel>
  </diagram>
</mxfile>
